<?xml version="1.0" standalone="no"?>
<!DOCTYPE svg PUBLIC "-//W3C//DTD SVG 20010904//EN"
 "http://www.w3.org/TR/2001/REC-SVG-20010904/DTD/svg10.dtd">
<svg version="1.0" xmlns="http://www.w3.org/2000/svg"
 width="470.000000pt" height="833.000000pt" viewBox="0 0 470.000000 833.000000"
 preserveAspectRatio="xMidYMid meet">

<g transform="translate(0.000000,833.000000) scale(0.100000,-0.100000)"
fill="#000000" stroke="none">
<path d="M2173 7251 c-44 -32 -73 -90 -73 -144 0 -34 31 -110 49 -121 20 -13
11 -26 -16 -26 -42 0 -129 -26 -192 -56 -81 -39 -188 -151 -234 -241 -88 -178
-89 -312 -2 -631 32 -117 55 -215 52 -218 -3 -3 -44 -14 -91 -24 -47 -11 -96
-24 -108 -31 -53 -27 -132 -130 -178 -232 -28 -62 -164 -477 -158 -481 2 -2
95 -24 208 -51 113 -26 206 -49 207 -50 2 -1 11 -53 21 -116 l18 -114 -24 -65
c-14 -36 -33 -74 -43 -86 -11 -11 -82 -203 -159 -427 -113 -329 -140 -418
-140 -462 0 -165 -52 -293 -129 -316 -34 -10 -44 -9 -66 5 -19 13 -25 25 -25
55 l0 38 -137 6 c-76 4 -172 10 -214 13 l-77 7 41 -81 c37 -75 40 -89 45 -182
5 -115 -12 -204 -59 -309 l-29 -64 97 7 c186 12 478 19 524 12 l46 -7 6 -102
c18 -277 28 -501 36 -796 11 -368 4 -343 107 -402 189 -108 430 -97 701 32
l83 40 2 907 3 907 423 35 c233 20 425 34 427 31 3 -2 5 -51 5 -108 0 -57 4
-103 8 -103 49 0 401 129 535 196 206 104 347 239 347 333 0 39 -229 429 -285
486 -70 72 -147 106 -253 113 l-83 5 5 -24 c65 -296 90 -452 90 -566 1 -108
-1 -125 -20 -149 -24 -33 -57 -44 -100 -33 -82 22 -114 112 -124 349 -8 191
-15 220 -63 296 l-32 52 -265 -79 c-145 -44 -270 -79 -276 -79 -9 0 -87 263
-87 295 0 5 16 55 37 110 53 144 109 200 379 379 114 75 207 139 207 142 0 2
-62 98 -139 212 l-138 207 -192 89 c-105 49 -193 87 -195 85 -2 -2 -34 -143
-71 -314 -37 -170 -69 -311 -70 -313 -1 -1 -85 147 -185 330 -101 183 -195
351 -210 374 -26 39 -27 43 -16 103 11 61 26 73 26 22 0 -33 10 -71 19 -71 3
0 16 8 28 18 18 13 24 31 29 77 l6 60 -47 24 c-63 33 -139 119 -164 186 -21
56 -30 182 -12 171 11 -7 390 93 409 107 6 5 12 24 13 41 l1 31 9 -33 c9 -31
12 -33 42 -27 18 4 36 8 40 9 5 0 18 -23 29 -51 12 -29 27 -53 34 -53 17 0 44
-39 44 -66 0 -12 -8 -32 -19 -45 -13 -17 -20 -48 -24 -109 -4 -72 -35 -200
-61 -262 -7 -15 -2 -15 61 2 37 10 120 32 183 49 63 16 142 38 175 48 65 20
58 9 80 128 7 37 9 38 15 15 5 -14 9 -38 9 -55 2 -49 11 -55 59 -43 32 8 41
15 38 27 -3 9 -26 95 -52 191 -52 195 -92 291 -159 385 -55 77 -147 162 -217
200 -29 15 -54 29 -56 30 -1 1 9 24 23 50 31 58 32 105 4 163 -25 51 -81 91
-138 99 -78 11 -170 -45 -187 -113 -9 -37 -24 -29 -24 14 1 48 30 113 65 140
41 33 14 27 -32 -7z m-943 -4101 l0 -140 -140 0 -140 0 0 140 0 140 140 0 140
0 0 -140z"/>
<path d="M3386 2999 c-44 -44 -121 -63 -261 -64 -75 0 -128 -5 -142 -13 -30
-17 -70 -103 -88 -190 -27 -131 -19 -150 77 -183 l53 -18 -240 -3 c-183 -2
-120 -4 265 -11 675 -11 718 -11 915 0 l170 10 -115 2 -115 2 40 21 c89 46 97
77 33 132 -36 32 -225 116 -258 116 -6 0 -75 52 -153 115 -78 63 -144 114
-147 114 -3 -1 -18 -15 -34 -30z m-14 -457 c9 -9 -10 -12 -82 -12 -89 1 -93 2
-70 16 29 17 134 14 152 -4z"/>
<path d="M1856 1289 c-44 -45 -120 -63 -265 -63 -121 -1 -125 -2 -152 -28 -34
-34 -63 -110 -80 -211 -15 -92 -11 -102 51 -134 l44 -23 -199 0 c-109 0 -196
-2 -193 -5 2 -3 186 -6 409 -7 258 -1 438 -6 499 -14 128 -17 228 -17 330 1
47 8 144 16 215 17 l130 2 -119 3 -118 4 41 29 c49 36 53 65 14 102 -35 33
-127 78 -218 109 -59 19 -93 41 -210 136 -77 62 -142 112 -145 112 -3 -1 -18
-15 -34 -30z m-36 -449 c10 -7 -5 -10 -53 -10 -43 0 -66 4 -62 10 8 13 95 13
115 0z"/>
</g>
</svg>
